<?xml version="1.0" encoding="UTF-8" standalone="no"?><!DOCTYPE svg PUBLIC "-//W3C//DTD SVG 1.1//EN" "http://www.w3.org/Graphics/SVG/1.1/DTD/svg11.dtd"><svg width="212" height="135" viewBox="0 0 212" version="1.1" xmlns="http://www.w3.org/2000/svg" xmlnsXlink="http://www.w3.org/1999/xlink" xmlSpace="preserve" xmlnsSerif="http://www.serif.com/" style="fill-rule:evenodd;clip-rule:evenodd;stroke-linejoin:round;stroke-miterlimit:2;"><path d="M54.321,0L42.44,67.303C41.193,74.662 37.373,82.927 33.09,87.523C29.39,91.494 25.551,94.608 18.865,94.608C12.18,94.608 7.364,93.383 4.418,90.934C1.473,88.485 0,85.275 0,81.303C0,75.677 3.475,70.679 10.425,66.31C14.168,63.676 21.937,57.627 25.443,55.441C27.914,53.899 31.045,51.682 32.964,49.63L34.651,41.928C31.024,45.657 28.02,45.728 24.527,45.851C17.812,46.086 13.815,44.061 11.47,41.283C10.235,39.82 9.172,37.939 8.734,36.133C8.321,34.424 8.132,31.701 8.529,29.649L13.458,0L26.052,0L22.016,24.783C21.818,25.975 21.719,27.166 21.719,28.358C21.719,31.535 25.151,34.085 28.726,34.085C31.704,34.085 34.853,32.098 36.64,30.046L41.668,0L54.321,0ZM19.118,84.83C25.022,84.83 28.882,79.471 30.698,68.754L32.061,60.852C19.436,66.756 13.123,72.705 13.123,78.699C13.123,80.516 13.646,81.992 14.69,83.127C15.735,84.263 17.211,84.83 19.118,84.83Z" style="fill:rgb(232,90,79);"/><path d="M64.919,109.523C57.877,109.523 53.002,107.997 50.293,104.943C48.422,102.777 47.486,99.748 47.486,95.858C47.486,94.183 47.659,92.386 48.003,90.465L51.032,73.476C53.248,61.017 61.25,54.787 75.039,54.787C80.751,54.787 85.085,56.006 88.04,58.444C90.994,60.881 92.472,64.218 92.472,68.453C92.472,70.423 92.188,72.38 91.622,74.325C91.056,76.27 90.502,77.711 89.96,78.647L89.148,80.124L76.073,80.124C77.698,78.253 78.511,75.593 78.511,72.146C78.511,70.324 78.043,68.884 77.107,67.825C76.172,66.766 74.793,66.237 72.971,66.237C67.997,66.237 65.042,68.995 64.106,74.51L61.521,89.431C61.275,90.712 61.152,91.967 61.152,93.198C61.152,96.449 63.097,98.074 66.987,98.074C71.666,98.074 74.473,95.439 75.408,90.17L88.704,90.17L88.335,92.312C86.365,103.786 78.56,109.523 64.919,109.523Z" style="fill:rgb(232,90,79);fill-rule:nonzero;"/><path d="M130.366,99.034C131.498,99.034 132.508,98.788 133.394,98.295L133.025,106.642C130.711,108.563 128.076,109.523 125.121,109.523C118.424,109.523 115.075,106.716 115.075,101.102C115.075,100.117 115.174,99.059 115.371,97.926L116.996,88.84C117.143,87.954 117.217,87.067 117.217,86.181C117.217,83.817 115.974,82.635 113.487,82.635C111,82.635 109.067,83.473 107.688,85.147L103.552,108.489L90.994,108.489L100.893,52.424L113.45,52.424L109.24,76.283C111.948,73.377 115.346,71.925 119.433,71.925C124.407,71.925 127.633,73.033 129.11,75.249C130.144,76.726 130.661,78.376 130.661,80.198C130.661,82.02 130.514,83.694 130.218,85.221L128.224,96.227C128.174,96.523 128.15,96.793 128.15,97.04C128.15,98.369 128.888,99.034 130.366,99.034Z" style="fill:rgb(232,90,79);fill-rule:nonzero;"/><path d="M151.935,109.523C141.692,109.523 136.571,105.978 136.571,98.886C136.571,97.901 136.669,96.843 136.866,95.71L138.417,86.55C139.255,81.823 141.434,78.191 144.955,75.655C148.476,73.119 153.142,71.851 158.953,71.851C168.851,71.851 173.8,75.593 173.8,83.079C173.8,84.162 173.702,85.344 173.505,86.624L172.618,91.869L150.088,91.869L149.793,93.568C149.695,94.159 149.645,94.7 149.645,95.193C149.645,97.901 151.246,99.256 154.447,99.256C155.629,99.256 156.638,98.886 157.475,98.148C158.312,97.409 158.805,96.547 158.953,95.562L171.215,95.71C169.59,104.919 163.163,109.523 151.935,109.523ZM160.799,87.363C160.996,86.526 161.095,85.75 161.095,85.036C161.095,84.322 160.775,83.596 160.134,82.857C159.494,82.118 158.472,81.749 157.069,81.749C155.665,81.749 154.385,82.217 153.228,83.152C152.071,84.088 151.27,85.492 150.827,87.363L160.799,87.363Z" style="fill:rgb(232,90,79);fill-rule:nonzero;"/><path d="M206.967,109.819C206.967,117.009 205.132,122.906 201.463,127.51C197.795,132.114 192.821,134.417 186.542,134.417C180.263,134.417 176.09,132.865 174.022,129.763C172.741,127.793 172.101,125.393 172.101,122.561C172.101,119.729 172.347,116.91 172.84,114.103L182.295,60.623L194.852,60.623L192.636,72.959L211.029,72.959L209.183,83.374L194.705,83.374C198.201,86.181 201.119,89.825 203.458,94.307C205.797,98.788 206.967,103.959 206.967,109.819ZM188.426,123.854C189.952,123.854 191.257,122.622 192.341,120.16C193.424,117.698 193.966,114.46 193.966,110.447C193.966,106.433 193.56,102.383 192.747,98.295C191.935,94.208 190.962,91.007 189.829,88.693L185.397,114.029C185.102,115.753 184.954,117.255 184.954,118.535C184.954,122.081 186.111,123.854 188.426,123.854Z" style="fill:rgb(232,90,79);fill-rule:nonzero;"/><path d="M69.373,46.799C59.13,46.799 54.009,43.253 54.009,36.162C54.009,35.177 54.107,34.118 54.304,32.986L55.856,23.826C56.693,19.099 58.872,15.467 62.393,12.931C65.914,10.395 70.58,9.126 76.391,9.126C86.289,9.126 91.238,12.869 91.238,20.354C91.238,21.438 91.14,22.62 90.943,23.9L90.056,29.145L67.527,29.145L67.231,30.844C67.133,31.435 67.083,31.976 67.083,32.469C67.083,35.177 68.684,36.531 71.885,36.531C73.067,36.531 74.076,36.162 74.913,35.423C75.751,34.685 76.243,33.823 76.391,32.838L88.653,32.986C87.028,42.195 80.601,46.799 69.373,46.799ZM78.237,24.639C78.434,23.802 78.533,23.026 78.533,22.312C78.533,21.598 78.213,20.871 77.573,20.133C76.932,19.394 75.911,19.025 74.507,19.025C73.104,19.025 71.823,19.493 70.666,20.428C69.509,21.364 68.709,22.767 68.265,24.639L78.237,24.639Z" style="fill:rgb(232,90,79);fill-rule:nonzero;"/><path d="M132.161,17.917C132.161,19.542 131.668,21.044 130.684,22.423L118.569,22.423C118.963,22.127 119.16,21.635 119.16,20.945C119.16,20.256 118.766,19.702 117.978,19.283C117.19,18.865 116.181,18.655 114.95,18.655C111.256,18.655 109.41,19.788 109.41,22.053C109.41,22.94 110.099,23.58 111.478,23.974C112.857,24.368 114.531,24.688 116.501,24.934C118.471,25.18 120.441,25.537 122.41,26.005C124.38,26.473 126.055,27.396 127.433,28.775C128.812,30.154 129.502,32.001 129.502,34.315C129.502,38.403 127.864,41.505 124.589,43.623C121.315,45.74 116.55,46.799 110.296,46.799C104.042,46.799 99.659,45.789 97.148,43.77C95.178,42.195 94.193,40.028 94.193,37.27C94.193,36.482 94.267,35.67 94.415,34.832L106.75,34.685C106.652,35.374 107.058,35.977 107.969,36.494C108.88,37.012 110.222,37.27 111.995,37.27C113.768,37.27 115.048,37.085 115.836,36.716C116.624,36.347 117.018,35.645 117.018,34.611C117.018,33.921 116.329,33.441 114.95,33.17C113.571,32.9 111.884,32.666 109.89,32.469C107.895,32.272 105.901,31.952 103.907,31.508C101.912,31.065 100.225,30.13 98.847,28.701C97.468,27.273 96.778,25.402 96.778,23.087C96.778,18.606 98.514,15.159 101.986,12.746C105.458,10.333 110.468,9.126 117.018,9.126C127.113,9.126 132.161,12.057 132.161,17.917Z" style="fill:rgb(232,90,79);fill-rule:nonzero;"/><path d="M134.525,41.481C134.525,38.329 135.226,36.027 136.63,34.574C138.033,33.121 140.237,32.395 143.241,32.395C147.673,32.395 149.889,34.586 149.889,38.969C149.889,53.447 143.044,60.686 129.354,60.686L130.314,55.368C132.924,55.368 135.51,54.137 138.07,51.674C139.498,50.295 140.36,48.67 140.656,46.799C136.568,46.799 134.525,45.026 134.525,41.481Z" style="fill:rgb(232,90,79);fill-rule:nonzero;"/></svg>